<?xml version="1.0" encoding="iso-8859-1"?>
<!-- Generator: Adobe Illustrator 21.0.0, SVG Export Plug-In . SVG Version: 6.00 Build 0)  -->
<svg version="1.1" id="Layer_1" xmlns="http://www.w3.org/2000/svg" xmlns:xlink="http://www.w3.org/1999/xlink" x="0px" y="0px"
	 width="595.276px" height="595.276px" viewBox="0 0 595.276 595.276" enable-background="new 0 0 595.276 595.276"
	 xml:space="preserve">
<g>
	<defs>
		<rect id="SVGID_7_" x="3.704" y="0.037" width="591.572" height="595.276"/>
	</defs>
	<clipPath id="SVGID_2_">
		<use xlink:href="#SVGID_7_"  overflow="visible"/>
	</clipPath>
	<g clip-path="url(#SVGID_2_)">
		<g>
			<path fill="#ED9191" d="M236.603,169.569c-3.894,0.249-8.181,0.489-11.291-1.755c-2.114-1.526-3.275-3.934-4.353-6.242
				c-5.297-11.333-10.594-22.665-15.891-33.998c-9.755-20.871-19.624-42.12-22.62-64.788c-0.45-3.405-0.687-7.083,1.13-10.046
				c2.061-3.361,6.252-4.95,10.251-5.75c7.251-1.451,14.763-1.084,22.136-0.374c25.449,2.45,82.143,10.279,96.878,33.505
				c6.917,10.904-0.615,22.573-4.989,32.907c-7.226,17.07-3.961,29.913,3.856,46.367c1.278,2.69,2.621,5.461,4.926,7.436
				c2.305,1.975,5.852,2.951,8.567,1.526c1.896-0.995,3.019-2.913,3.98-4.761c9.044-17.398,12.317-37.47,9.239-56.662
				c-2.058-12.838-19.28-19.305-30.748-11.991c-12.405,7.911-11.204,29.209-10.482,41.279c0.305,5.095,0.637,10.306,2.724,15.01
				c7.392,16.654,13.178,24.024-10.981,20.768C271.509,169.651,254.204,168.445,236.603,169.569z"/>
			<path fill="#ED9191" d="M344.04,69.504c14.203-9.797,29.64-17.969,45.874-24.285c15.233-5.927,34.86-9.423,46.387,1.764
				c5.086,4.937,7.421,11.803,9.592,18.403c2.753,8.369,5.53,16.876,5.733,25.644c0.253,10.938-3.505,21.557-7.217,31.91
				c-3.142,8.762-6.283,17.524-9.425,26.286c-1.783,4.972-3.701,10.15-7.701,13.766c-4.936,4.462-12.097,5.721-18.849,6.529
				c-23.168,2.772-46.725,2.57-69.837-0.597c3.427-8.063,14.292-11.832,16.858-20.18c1.356-4.414,0.037-9.126-1.279-13.551
				c-3.187-10.715-6.375-21.43-9.562-32.145C340.138,88.003,326.514,81.593,344.04,69.504z"/>
			<path fill="#ED9191" d="M239.349,274.649c23.781-2.8,47.965-2.479,71.656,0.949c23.995,3.473,47.748,10.134,72.002,9.304
				c0.976-36.201-3.091-72.523-12.063-107.714c-19.783,1.217-39.773,2.425-59.329-0.665c-11.599-1.833-22.909-5.16-34.555-6.696
				c-10.74-1.416-32.931-5.581-42.961-1.892c-11.258,4.14-7.611,13.928-5.534,23.272
				C230.177,198.463,244.682,274.021,239.349,274.649z"/>
			<path fill="#ED9191" d="M268.574,349.667c0.303,11.731-0.445,23.46-0.978,35.184c-1.057,23.231-1.271,46.489-1.485,69.741
				c-0.165,17.908-0.315,35.968,3.391,53.525c3.65,17.29,11.041,34.656,7.62,51.989c25.688-1.101,51.376-2.202,77.064-3.303
				c-4.237-15.415-4.281-31.555-4.298-47.49c-0.048-45.204-0.097-90.407-0.145-135.611c-0.011-10.686-0.02-21.412,1.509-31.998
				c2.721-18.838,10.021-39.182,0.513-55.902c-3.299-5.801-78.457-4.103-86.129-0.958c-11.497,4.713-4.949,13.478-2.419,24.048
				C266.418,322.267,268.219,335.95,268.574,349.667z"/>
		</g>
		<g>
			<path fill="#7EB78C" d="M79.344,221.627c3.737,13.508,8.628,27.562,5.171,41.138c-1.537,6.038-4.045,13.862,1.375,17.319
				c1.482,0.945,3.29,1.282,5.053,1.538c22.952,3.341,46.224-3.444,69.43-2.736c22.325,0.681,44.67,8.275,66.578,4.13
				c2.21-11.344-0.975-22.923-3.64-34.178c-5.778-24.396-9.196-49.3-10.196-74.291c-33.263-1.485-66.635-0.724-99.786,2.265
				c-10.163,0.916-27.827-0.666-34.509,7.824C71.726,193.648,76.686,212.018,79.344,221.627z"/>
			<path fill="#7EB78C" d="M386.104,287.984c22.746-2.044,45.602-2.988,68.448-2.828c16.676,0.117,35.887-0.218,46.433-12.525
				c4.662-5.441,6.775-12.45,8.142-19.352c3.41-17.21,2.855-35.123-1.613-52.111c-1.287-4.894-3.017-9.911-6.738-13.5
				c-3.367-3.247-7.999-4.97-12.544-6.413c-31.798-10.101-79.237-14.252-109.7,1.914
				C391.794,216.403,394.526,253.325,386.104,287.984z"/>
			<path fill="#7EB78C" d="M86.97,333.508c-4.232,59.754-1.149,119.975,9.166,179.053c0.867,4.967,1.794,9.956,3.605,14.686
				c2.369,6.188,6.234,11.827,11.059,16.545c5.479,5.356,12.252,9.563,19.731,11.835c6.219,1.889,12.789,2.423,19.293,2.945
				c40.244,3.232,80.792,6.461,120.936,2.243c2.917-16.008-1.7-32.255-4.328-48.309c-2.176-13.295-2.991-26.753-3.803-40.186
				c-3.795-62.781-7.59-125.562-11.384-188.343c-27.362,2.274-54.724,4.549-82.086,6.823c-21.49,1.786-42.406-2.19-63.241-1.424
				C87.075,290.068,88.021,318.665,86.97,333.508z"/>
			<path fill="#7EB78C" d="M360.71,425.768c1.201,37.453,2.364,75.332-5.78,111.99c-1.843,8.296-2.978,19.197,4.939,23.075
				c3.283,1.608,7.188,1.337,10.865,1.026c21.767-1.84,43.534-3.681,65.301-5.521c5.943-0.502,12.032-1.042,17.417-3.489
				c8.788-3.994,14.38-12.478,17.962-21.103c7.61-18.324,8.169-38.513,8.498-58.216c0.991-59.259,0.8-118.536-0.573-177.789
				c-22.474,3.702-45.49,4.348-68.157,1.967c-12.483-1.311-45.993-14.829-53.762-2.117c-3.949,6.462-0.147,22.976,0.087,30.281
				c0.356,11.1,0.712,22.199,1.068,33.299C359.286,381.369,359.998,403.568,360.71,425.768z"/>
		</g>
		<g>
			
				<path fill="none" stroke="#09090A" stroke-width="7.2915" stroke-linecap="round" stroke-linejoin="round" stroke-miterlimit="10" d="
				M318.182,171.365c-22.052,10.504-92.389-0.202-97.685-14.15c-15.1-39.769-61.434-89.11-34.368-106.961
				c30.421-20.063,103.8,3.458,141.03,39.017c-30.26-0.862-56.251,86.324,1.368,78.982"/>
			
				<path fill="none" stroke="#09090A" stroke-width="7.2915" stroke-linecap="round" stroke-linejoin="round" stroke-miterlimit="10" d="
				M319.558,170.649c-15.448-1.191-23.613-4.483-23.613-23.511c0-7.914,2.585-29.114,6.202-36.238
				C340.418,35.512,364.246,174.095,319.558,170.649z"/>
			
				<path fill="none" stroke="#09090A" stroke-width="7.2915" stroke-linecap="round" stroke-linejoin="round" stroke-miterlimit="10" d="
				M318.182,171.365c32.023-0.257,72.758,13.94,99.027-5.255c20.019-38.222,56.163-99.588,27.085-121.748
				c-31.319-23.869-88.653,3.718-117.136,44.909C347.581,114.921,354.608,157.215,318.182,171.365"/>
			
				<path fill="none" stroke="#09090A" stroke-width="7.2915" stroke-linecap="round" stroke-linejoin="round" stroke-miterlimit="10" d="
				M357.892,176.674c53.43-8.391,138.607-7.205,152.969,17.395c16.007,27.419,7.316,67.976-2.12,81.107
				c-24.391,33.939-114.132,11.398-148.309,7.78c-88.979-9.418-188.86,12.962-276.078,0c-20.652-3.069-2.83-55.813-8.83-88.888
				c-5.984-32.985,89.361-17.715,123.83-22.093c35.917-4.562,73.782,4.698,110.023,4.698c56.154,0,45.689-5.961,99.768-5.961"/>
			
				<path fill="none" stroke="#09090A" stroke-width="7.2915" stroke-linecap="round" stroke-linejoin="round" stroke-miterlimit="10" d="
				M484.086,290.258c9.871,37.616,3.078,216.275-13.884,248.594c-14.943,28.47-106.37,21.617-135.001,21.617
				c-39.47,0-209.333,15.782-235.944-9.569c-28.768-27.405-29.499-237.682,0.276-266.047"/>
			
				<path fill="none" stroke="#09090A" stroke-width="7.2915" stroke-linecap="round" stroke-linejoin="round" stroke-miterlimit="10" d="
				M220.28,171.521c0,24.477,3.393,80.811,8.793,105.719"/>
			
				<path fill="none" stroke="#09090A" stroke-width="7.2915" stroke-linecap="round" stroke-linejoin="round" stroke-miterlimit="10" d="
				M374.91,171.521c0,10.896,8.393,90.489,8.813,110.679"/>
			
				<path fill="none" stroke="#09090A" stroke-width="7.2915" stroke-linecap="round" stroke-linejoin="round" stroke-miterlimit="10" d="
				M257.671,282.2c0,55.567,4.057,141.761,5.673,197.207c0.509,17.448,1.6,34.91,3.782,52.241
				c1.211,9.613,3.782,28.822,3.782,28.822"/>
			
				<path fill="none" stroke="#09090A" stroke-width="7.2915" stroke-linecap="round" stroke-linejoin="round" stroke-miterlimit="10" d="
				M360.431,282.957l-2.539,19.911c0,0-1.309,28.821-1.891,43.234c-0.558,13.814-1.891,27.609-1.891,41.432
				c0,42.078-12.823,132.9,1.329,173.342"/>
		</g>
	</g>
</g>
</svg>
